<svg width="603.15" height="285.92" version="1.1" viewBox="0 0 603.15 285.92" xml:space="preserve" xmlns="http://www.w3.org/2000/svg" xmlns:cc="http://creativecommons.org/ns#" xmlns:dc="http://purl.org/dc/elements/1.1/" xmlns:rdf="http://www.w3.org/1999/02/22-rdf-syntax-ns#"><metadata><rdf:RDF><cc:Work rdf:about=""><dc:format>image/svg+xml</dc:format><dc:type rdf:resource="http://purl.org/dc/dcmitype/StillImage"/><dc:title/></cc:Work></rdf:RDF></metadata><g transform="matrix(1.3333 0 0 -1.3333 -276.97 555.7)" fill="#fac518"><path d="m651.42 211.66h-435.03v196.09h435.03zm-443.7-9.321h452.36v214.44h-452.36z"/><path d="m285.51 318.11 9.719-23.409h-19.601zm0.209 29.824-38.03-76.945h17.926l4.816 10.852h30.282l4.731-10.852h18.686l-37.239 76.945z"/><path d="m346.27 348.05h1.263l28.154-48.605 26.572 48.605h1.367l15.603-77.069h-16.97l-6.33 34.053-20.033-36.794h-1.157l-21.513 37.323-6.537-34.582h-15.917z"/><path d="m426.73 345.63h17.821v-74.648h-17.821z"/><path d="m470.68 329.71h3.902c16.027 0 24.922-8.436 24.922-21.4 0-12.966-8.895-21.323-24.922-21.323h-3.902zm-17.592 15.916v-74.641h19.819c10.012 0 18.225 1.041 26.131 5.576 12.128 6.958 18.476 17.939 18.476 31.749 0 22.355-15.825 37.316-44.607 37.316z"/><path d="m564.22 331.26c12.611 0 22.828-10.217 22.828-22.828 0-12.617-10.217-22.827-22.828-22.827-12.612 0-22.828 10.21-22.828 22.827 0 12.611 10.216 22.828 22.828 22.828m0 16.84c-21.913 0-39.667-17.763-39.667-39.668 0-21.911 17.754-39.667 39.667-39.667 21.911 0 39.659 17.756 39.659 39.667 0 21.905-17.748 39.668-39.659 39.668"/><path d="m628.51 367.38c-0.031 10.783-8.965 19.662-19.735 19.615-10.745-0.047-19.577-8.905-19.587-19.645-9e-3 -10.776 8.9-19.686 19.675-19.676 10.771 9e-3 19.678 8.943 19.647 19.706m-19.684 22.375c12.469 2e-3 22.45-9.997 22.444-22.484-7e-3 -12.372-10.041-22.361-22.458-22.357-12.436 4e-3 -22.393 10.034-22.383 22.545 0.011 12.303 10.047 22.294 22.397 22.296"/><path d="m596.45 374.45 5.504 5.504c1.387-1.386 2.793-2.801 4.146-4.143 1.237-1.226 4.742-1.229 5.975-8e-3 1.355 1.342 2.761 2.758 4.151 4.148 2.284-2.283 3.171-3.171 5.505-5.504-1.279-1.279-2.631-2.629-3.918-3.918-1.55-1.552-1.543-4.889 0.03-6.463 1.245-1.247 2.554-2.555 3.865-3.866l-5.504-5.504c-1.298 1.298-2.676 2.68-3.995 3.994-1.402 1.397-4.829 1.4-6.221 0.013-1.301-1.296-2.66-2.658-4.016-4.014l-5.441 5.441c1.35 1.349 3.204 3.321 4.544 4.672 1.266 1.277 0.753 4.26-0.534 5.555-1.319 1.328-2.708 2.71-4.091 4.093"/></g></svg>
