<svg width="102" height="29" viewBox="0 0 102 29" fill="none" xmlns="http://www.w3.org/2000/svg">
<path d="M24.9292 14.6378L16.621 0.29834L8.30821 14.6378L0 28.9773H5.54188L11.0792 19.4161L16.621 9.85953L22.1629 19.4161L27.7002 28.9773H33.2421L24.9292 14.6378Z" fill="white"/>
<path d="M16.621 19.416L19.3919 24.1989L22.1629 28.9772H16.621H11.0791L13.85 24.1989L16.621 19.416Z" fill="white"/>
<path d="M36.1648 26.5099L38.0704 24.7169C38.7516 25.5974 40.2291 26.3998 41.3983 26.3998C42.4247 26.3998 43.3223 26.0422 43.3223 25.2901C43.3223 24.7169 42.6917 24.4142 41.8125 24.1437L39.2763 23.3549C37.7482 22.8551 36.5054 21.7041 36.5054 19.9294C36.5054 17.4944 38.9864 16.0591 41.2924 16.0591C43.1106 16.0591 44.855 16.5956 45.9874 18.0493L43.9022 19.7689C43.2901 19.0352 42.2636 18.6408 41.3292 18.6408C40.7171 18.6408 39.6032 18.9251 39.6032 19.7873C39.6032 20.4338 40.2706 20.6631 40.8782 20.8603L43.5754 21.6857C45.412 22.2773 46.4522 23.4237 46.4522 24.9278C46.4522 27.1336 44.3303 28.9954 41.2878 28.9954C39.3316 28.9999 37.2419 28.1608 36.1648 26.5099Z" fill="white"/>
<path d="M67.1653 22.5203C67.1653 18.9343 70.0881 16.0591 73.6692 16.0591C76.0535 16.0591 78.1478 17.3247 79.2755 19.2737L76.661 20.7915C76.0719 19.6864 74.9396 18.9527 73.6692 18.9527C71.7866 18.9527 70.2492 20.5577 70.2492 22.5203C70.2492 24.5014 71.7912 26.088 73.6692 26.088C74.9258 26.088 76.0351 25.3726 76.6242 24.3042L79.2387 25.822C78.111 27.7297 76.0304 28.9999 73.6646 28.9999C70.0881 28.9999 67.1653 26.0926 67.1653 22.5203Z" fill="white"/>
<path d="M91.708 26.5099L93.6136 24.7169C94.2948 25.5974 95.7724 26.3998 96.9415 26.3998C97.9679 26.3998 98.8655 26.0422 98.8655 25.2901C98.8655 24.7169 98.2349 24.4142 97.3557 24.1437L94.8196 23.3549C93.2914 22.8551 92.0486 21.7041 92.0486 19.9294C92.0486 17.4944 94.5296 16.0591 96.8356 16.0591C98.6538 16.0591 100.398 16.5956 101.531 18.0493L99.4455 19.7689C98.8333 19.0352 97.8068 18.6408 96.8724 18.6408C96.2603 18.6408 95.1464 18.9251 95.1464 19.7873C95.1464 20.4338 95.8138 20.6631 96.4214 20.8603L99.1186 21.6857C100.955 22.2773 101.995 23.4237 101.995 24.9278C101.995 27.1336 99.8735 28.9954 96.831 28.9954C94.8748 28.9999 92.7897 28.1608 91.708 26.5099Z" fill="white"/>
<path d="M50.411 19.3104H47.2166V16.6323H56.4499V19.3104H53.2555V28.8028H50.411V19.3104Z" fill="white"/>
<path d="M80.8498 16.6507H83.676V21.6399L87.9199 16.6323H91.1419L86.7553 21.8646L91.6252 28.789H88.2467L84.9372 24.0749L83.6714 25.5423V28.8074H80.8452V16.6507H80.8498Z" fill="white"/>
<path d="M61.4301 16.2563L55.207 28.8028H58.1391L58.9262 27.0328H63.8835L64.6568 28.8028H67.7131L61.6189 16.2563H61.4301ZM61.3933 21.1218L62.9859 24.9371H59.7777L61.3933 21.1218Z" fill="white"/>
<path d="M42.3925 0.128418L36.1648 12.6795H39.1014L39.8885 10.9094H44.8458L45.6191 12.6795H48.68L42.5812 0.128418H42.3925ZM42.3557 4.99385L43.9483 8.81374H40.7401L42.3557 4.99385Z" fill="white"/>
<path d="M52.3025 0.00439453H52.5097L57.1218 7.93308L61.4715 0.00439453H61.697L64.2516 12.5738H61.4715L60.4359 7.02052L57.154 13.0232H56.9653L53.4441 6.9334L52.3716 12.5738H49.7664L52.3025 0.00439453Z" fill="white"/>
<path d="M68.3943 0.274902H65.4761V12.4499H68.3943V0.274902Z" fill="white"/>
<path d="M69.7935 0.29834V12.4734H73.0385C74.6771 12.4734 76.0212 12.3037 77.3146 11.5654C79.2984 10.4327 80.3387 8.63974 80.3387 6.38816C80.3387 2.74252 77.7472 0.302926 73.0339 0.302926H69.7935V0.29834ZM72.6749 2.89385H73.3147C75.9383 2.89385 77.3928 4.26956 77.3928 6.38357C77.3928 8.49758 75.9383 9.85954 73.3147 9.85954H72.6749V2.89385Z" fill="white"/>
<path d="M87.9888 0C84.4032 0 81.4941 2.89817 81.4941 6.47043C81.4941 10.0427 84.4032 12.9409 87.9888 12.9409C91.5745 12.9409 94.4835 10.0427 94.4835 6.47043C94.4789 2.89817 91.5745 0 87.9888 0ZM87.9888 2.74684C90.0555 2.74684 91.7264 4.41145 91.7264 6.47043C91.7264 8.52941 90.0555 10.194 87.9888 10.194C85.9221 10.194 84.2513 8.52941 84.2513 6.47043C84.2513 4.41145 85.9221 2.74684 87.9888 2.74684Z" fill="white"/>
</svg>
