<svg xmlns="http://www.w3.org/2000/svg" viewBox="0 0 686.38 162"><defs><style>.cls-1{fill:#ffffff;}.cls-2{fill:#ffffff;}</style></defs><title>Ensono</title><g id="Layer_2" data-name="Layer 2"><path class="cls-1" d="M289.61,78.5C272.1,74.29,257,70.74,257,55c0-11.53,12.87-20.62,28.6-20.62,19.07,0,29.05,11.08,29.27,11.31a2.83,2.83,0,0,0,4.21-3.77c-.44-.66-11.75-13.3-33.48-13.3-18.84,0-34.36,11.75-34.36,26.38,0,20.4,19.73,24.83,37,29,17.07,4,33.25,7.54,33.25,24.17,0,14.19-16.18,25.72-35.92,25.72-20.84,0-36.8-14.19-37-14.41a2.82,2.82,0,1,0-3.77,4.2c.67.67,17.74,15.75,40.79,15.75,23.28,0,41.69-13.75,41.69-31.26C327.31,87.15,307.35,82.49,289.61,78.5Z"/><path class="cls-1" d="M80,28.62C50.34,28.62,26.58,53.27,26.13,84c.45,30.31,24.21,55,53.84,55.43,18.55,0,35.06-10.41,44.57-25.12a2.79,2.79,0,0,0-.68-3.84c-1.58-.68-3.17-.68-4.07.68A46.86,46.86,0,0,1,80,133.81c-26.7-.22-48.19-22.62-48.19-49.77v-.68L32,77.93C35,53.27,55.31,34.5,80,34.5c24.21,0,44.57,18.77,47.51,43.43H58.74a2.72,2.72,0,0,0,0,5.43h71.68a3.11,3.11,0,0,0,2.71-2.71v-.91C131.1,51,108.25,28.62,80,28.62Z"/><path class="cls-1" d="M500.56,28.62A44.7,44.7,0,0,0,456,73.41v63.11a3,3,0,0,0,2.94,2.95,2.68,2.68,0,0,0,2.72-2.95V73.41a38.91,38.91,0,1,1,77.82,0v63.11a2.68,2.68,0,0,0,2.72,2.95,3,3,0,0,0,2.94-2.95V73.41A44.7,44.7,0,0,0,500.56,28.62Z"/><path class="cls-1" d="M188.74,28.62a44.69,44.69,0,0,0-44.57,44.79v63.11a3,3,0,0,0,2.94,2.95,2.67,2.67,0,0,0,2.71-2.95V73.41a38.92,38.92,0,1,1,77.83,0v63.11a2.67,2.67,0,0,0,2.71,2.95,3,3,0,0,0,2.94-2.95V73.41A44.69,44.69,0,0,0,188.74,28.62Z"/><path class="cls-1" d="M390.65,28.62c-29,0-52.26,24.88-52.26,55.42,0,30.31,23.3,55.43,52.26,55.43S443.13,114.35,443.13,84C443.13,53.5,419.61,28.62,390.65,28.62Zm0,105.19c-25.56,0-46.6-22.4-46.6-49.77,0-27.6,21-49.77,46.6-49.77S437.48,56.44,437.48,84C437.48,111.41,416.22,133.81,390.65,133.81Z"/><path class="cls-2" d="M609.31,28.62c-28.95,0-52.25,24.88-52.25,55.42,0,30.31,23.3,55.43,52.25,55.43S661.8,114.35,661.8,84C661.8,53.5,638.27,28.62,609.31,28.62Zm0,105.19c-25.56,0-46.6-22.4-46.6-49.77,0-27.6,21-49.77,46.6-49.77S656.14,56.44,656.14,84C656.14,111.41,634.88,133.81,609.31,133.81Z"/><path class="cls-2" d="M672.53,36.13a7.37,7.37,0,0,1-.58,2.93,7.61,7.61,0,0,1-1.58,2.38A7.37,7.37,0,0,1,668,43a7.47,7.47,0,0,1-2.93.57,7.75,7.75,0,0,1-3-.55,6.87,6.87,0,0,1-2.33-1.56,7.11,7.11,0,0,1-1.52-2.35,7.81,7.81,0,0,1-.55-3,7.48,7.48,0,0,1,2.16-5.31,7.8,7.8,0,0,1,8.28-1.59A6.88,6.88,0,0,1,672,33.16,7.93,7.93,0,0,1,672.53,36.13Zm-1.45.11a7,7,0,0,0-.45-2.57,5.92,5.92,0,0,0-1.25-2,5.53,5.53,0,0,0-1.88-1.27,6.3,6.3,0,0,0-2.35-.44,6.1,6.1,0,0,0-2.46.49,5.76,5.76,0,0,0-1.9,1.33,6,6,0,0,0-1.22,1.93,6.48,6.48,0,0,0-.43,2.34,7,7,0,0,0,.45,2.57,5.92,5.92,0,0,0,1.25,2,5.44,5.44,0,0,0,1.88,1.27,6.18,6.18,0,0,0,2.35.44,6,6,0,0,0,2.48-.49,5.86,5.86,0,0,0,1.9-1.33,6,6,0,0,0,1.21-1.93A6.48,6.48,0,0,0,671.08,36.24Zm-2.52,3.67a.3.3,0,0,1,0,.14s0,.07-.11.09a1.41,1.41,0,0,1-.29,0l-.52,0-.46,0a1.11,1.11,0,0,1-.3-.07.53.53,0,0,1-.19-.13.52.52,0,0,1-.11-.21l-.43-1.4a2.4,2.4,0,0,0-.63-1.1,1.76,1.76,0,0,0-1.12-.31h-.55v2.91a.27.27,0,0,1-.13.25,1.76,1.76,0,0,1-.67.08,2,2,0,0,1-.71-.08.26.26,0,0,1-.15-.25V32.63a.93.93,0,0,1,.18-.6.72.72,0,0,1,.58-.22H665a5.83,5.83,0,0,1,1.42.15,2.81,2.81,0,0,1,1,.47,1.78,1.78,0,0,1,.57.74,2.46,2.46,0,0,1,.19,1,2,2,0,0,1-.52,1.49,3,3,0,0,1-1.38.73,2.56,2.56,0,0,1,.88.54,3.21,3.21,0,0,1,.73,1.15l.51,1.33A2.5,2.5,0,0,1,668.56,39.91Zm-2.17-5.55a1.56,1.56,0,0,0-.07-.44.9.9,0,0,0-.25-.37,1.35,1.35,0,0,0-.48-.24,2.76,2.76,0,0,0-.77-.09h-1v2.4h.95a1.77,1.77,0,0,0,1.26-.35A1.23,1.23,0,0,0,666.39,34.36Z"/></g></svg>
