<?xml version="1.0" encoding="utf-8"?>
<!-- Generator: Adobe Illustrator 24.3.0, SVG Export Plug-In . SVG Version: 6.00 Build 0)  -->
<svg version="1.1" id="Layer_1" xmlns="http://www.w3.org/2000/svg" xmlns:xlink="http://www.w3.org/1999/xlink" x="0px" y="0px"
	 viewBox="0 0 221.6 63.24" style="enable-background:new 0 0 221.6 63.24;" xml:space="preserve">
<style type="text/css">
	.st0{fill:#FFFFFF;}
</style>
<polygon class="st0" points="54.16,31.92 36.11,0.65 18.05,31.92 0,63.19 12.04,63.19 24.07,42.34 36.11,21.5 48.15,42.34 
	60.18,63.19 72.22,63.19 "/>
<polygon class="st0" points="36.11,42.34 42.13,52.77 48.15,63.19 36.11,63.19 24.07,63.19 30.09,52.77 "/>
<path class="st0" d="M78.57,57.81l4.14-3.91c1.48,1.92,4.69,3.67,7.23,3.67c2.23,0,4.18-0.78,4.18-2.42c0-1.25-1.37-1.91-3.28-2.5
	l-5.51-1.72c-3.32-1.09-6.02-3.6-6.02-7.47c0-5.31,5.39-8.44,10.4-8.44c3.95,0,7.74,1.17,10.2,4.34l-4.53,3.75
	c-1.33-1.6-3.56-2.46-5.59-2.46c-1.33,0-3.75,0.62-3.75,2.5c0,1.41,1.45,1.91,2.77,2.34l5.86,1.8c3.99,1.29,6.25,3.79,6.25,7.07
	c0,4.81-4.61,8.87-11.22,8.87C85.45,63.24,80.91,61.41,78.57,57.81z"/>
<path class="st0" d="M145.92,49.11c0-7.82,6.35-14.09,14.13-14.09c5.18,0,9.73,2.76,12.18,7.01l-5.68,3.31
	c-1.28-2.41-3.74-4.01-6.5-4.01c-4.09,0-7.43,3.5-7.43,7.78c0,4.32,3.35,7.78,7.43,7.78c2.73,0,5.14-1.56,6.42-3.89l5.68,3.31
	c-2.45,4.16-6.97,6.93-12.11,6.93C152.27,63.24,145.92,56.9,145.92,49.11z"/>
<path class="st0" d="M199.24,57.81l4.14-3.91c1.48,1.92,4.69,3.67,7.23,3.67c2.23,0,4.18-0.78,4.18-2.42c0-1.25-1.37-1.91-3.28-2.5
	L206,50.93c-3.32-1.09-6.02-3.6-6.02-7.47c0-5.31,5.39-8.44,10.4-8.44c3.95,0,7.74,1.17,10.2,4.34l-4.53,3.75
	c-1.33-1.6-3.56-2.46-5.59-2.46c-1.33,0-3.75,0.62-3.75,2.5c0,1.41,1.45,1.91,2.77,2.34l5.86,1.8c3.99,1.29,6.25,3.79,6.25,7.07
	c0,4.81-4.61,8.87-11.22,8.87C206.12,63.24,201.59,61.41,199.24,57.81z"/>
<g>
	<path class="st0" d="M109.52,42.11h-6.94v-5.84h20.06v5.84h-6.94v20.7h-6.18V42.11z"/>
	<path class="st0" d="M175.65,36.31h6.14v10.88l9.22-10.92h7l-9.53,11.41l10.58,15.1h-7.34l-7.19-10.28l-2.75,3.2v7.12h-6.14V36.31z
		"/>
	<path class="st0" d="M133.46,35.45l-13.52,27.36h6.37l1.71-3.86h10.77l1.68,3.86h6.64l-13.24-27.36H133.46z M133.38,46.06
		l3.46,8.32h-6.97L133.38,46.06z M133.38,46.06"/>
</g>
<g>
	<path class="st0" d="M92.1,0.28L78.57,27.65h6.38l1.71-3.86h10.77l1.68,3.86h6.65L92.51,0.28H92.1z M92.02,10.89l3.46,8.33h-6.97
		L92.02,10.89z M92.02,10.89"/>
	<path class="st0" d="M113.63,0.01h0.45L124.1,17.3l9.45-17.29h0.49l5.55,27.41h-6.04l-2.25-12.11l-7.13,13.09h-0.41l-7.65-13.28
		l-2.33,12.3h-5.66L113.63,0.01z M113.63,0.01"/>
	<rect x="142.25" y="0.6" class="st0" width="6.34" height="26.55"/>
	<path class="st0" d="M151.63,0.65V27.2h7.05c3.56,0,6.48-0.37,9.29-1.98c4.31-2.47,6.57-6.38,6.57-11.29
		c0-7.95-5.63-13.27-15.87-13.27H151.63z M157.89,6.31h1.39c5.7,0,8.86,3,8.86,7.61c0,4.61-3.16,7.58-8.86,7.58h-1.39V6.31z
		 M157.89,6.31"/>
	<path class="st0" d="M191.16,0c-7.79,0-14.11,6.32-14.11,14.11c0,7.79,6.32,14.11,14.11,14.11c7.79,0,14.11-6.32,14.11-14.11
		C205.26,6.32,198.95,0,191.16,0L191.16,0z M191.16,5.99c4.49,0,8.12,3.63,8.12,8.12c0,4.49-3.63,8.12-8.12,8.12
		c-4.49,0-8.12-3.63-8.12-8.12C183.04,9.62,186.67,5.99,191.16,5.99L191.16,5.99z M191.16,5.99"/>
</g>
</svg>
